<svg width="331" height="222" viewBox="0 0 331 222" fill="none" xmlns="http://www.w3.org/2000/svg">
<path d="M121.986 24.6C123.922 24.6 125.513 24.996 126.76 25.788C128.007 26.5653 128.645 27.724 128.674 29.264V29.528H124.12V29.44C124.12 29 123.959 28.6333 123.636 28.34C123.313 28.0467 122.822 27.9 122.162 27.9C121.517 27.9 121.018 27.9953 120.666 28.186C120.329 28.3767 120.16 28.6113 120.16 28.89C120.16 29.286 120.395 29.5793 120.864 29.77C121.333 29.9607 122.089 30.1587 123.13 30.364C124.347 30.6133 125.345 30.8773 126.122 31.156C126.914 31.42 127.603 31.86 128.19 32.476C128.777 33.092 129.077 33.928 129.092 34.984C129.092 36.7733 128.483 38.1007 127.266 38.966C126.063 39.8313 124.45 40.264 122.426 40.264C120.065 40.264 118.224 39.868 116.904 39.076C115.599 38.284 114.946 36.8833 114.946 34.874H119.544C119.544 35.6367 119.742 36.15 120.138 36.414C120.534 36.6633 121.15 36.788 121.986 36.788C122.602 36.788 123.108 36.722 123.504 36.59C123.915 36.458 124.12 36.1867 124.12 35.776C124.12 35.4093 123.893 35.138 123.438 34.962C122.998 34.7713 122.272 34.5733 121.26 34.368C120.028 34.104 119.009 33.8327 118.202 33.554C117.395 33.2607 116.691 32.784 116.09 32.124C115.489 31.464 115.188 30.5693 115.188 29.44C115.188 27.7827 115.826 26.5653 117.102 25.788C118.393 24.996 120.021 24.6 121.986 24.6ZM139.029 24.6C141.64 24.6 143.656 25.2673 145.079 26.602C146.502 27.9367 147.213 29.88 147.213 32.432C147.213 34.984 146.502 36.9273 145.079 38.262C143.656 39.5967 141.64 40.264 139.029 40.264C136.418 40.264 134.402 39.604 132.979 38.284C131.571 36.9493 130.867 34.9987 130.867 32.432C130.867 29.8653 131.571 27.922 132.979 26.602C134.402 25.2673 136.418 24.6 139.029 24.6ZM139.029 28.23C137.988 28.23 137.196 28.5453 136.653 29.176C136.11 29.8067 135.839 30.6573 135.839 31.728V33.136C135.839 34.2067 136.11 35.0573 136.653 35.688C137.196 36.3187 137.988 36.634 139.029 36.634C140.07 36.634 140.862 36.3187 141.405 35.688C141.962 35.0573 142.241 34.2067 142.241 33.136V31.728C142.241 30.6573 141.962 29.8067 141.405 29.176C140.862 28.5453 140.07 28.23 139.029 28.23ZM157.047 24.6C159.291 24.6 161.066 25.1647 162.371 26.294C163.676 27.4087 164.329 29.0073 164.329 31.09H159.687C159.687 30.21 159.452 29.5133 158.983 29C158.528 28.4867 157.876 28.23 157.025 28.23C156.042 28.23 155.316 28.538 154.847 29.154C154.392 29.77 154.165 30.628 154.165 31.728V33.136C154.165 34.2213 154.392 35.0793 154.847 35.71C155.316 36.326 156.028 36.634 156.981 36.634C157.92 36.634 158.631 36.392 159.115 35.908C159.599 35.424 159.841 34.742 159.841 33.862H164.329C164.329 35.93 163.691 37.514 162.415 38.614C161.154 39.714 159.364 40.264 157.047 40.264C154.466 40.264 152.508 39.604 151.173 38.284C149.853 36.964 149.193 35.0133 149.193 32.432C149.193 29.8507 149.853 27.9 151.173 26.58C152.508 25.26 154.466 24.6 157.047 24.6ZM167.174 40V24.864H172.036V40H167.174ZM185.647 40L185.009 37.866H179.707L179.069 40H174.097L179.619 24.864H185.273L190.795 40H185.647ZM180.719 34.478H183.997L182.413 29.088H182.325L180.719 34.478ZM192.628 24.864H197.49V36.128H205.256V40H192.628V24.864ZM213.66 24.6C215.596 24.6 217.187 24.996 218.434 25.788C219.68 26.5653 220.318 27.724 220.348 29.264V29.528H215.794V29.44C215.794 29 215.632 28.6333 215.31 28.34C214.987 28.0467 214.496 27.9 213.836 27.9C213.19 27.9 212.692 27.9953 212.34 28.186C212.002 28.3767 211.834 28.6113 211.834 28.89C211.834 29.286 212.068 29.5793 212.538 29.77C213.007 29.9607 213.762 30.1587 214.804 30.364C216.021 30.6133 217.018 30.8773 217.796 31.156C218.588 31.42 219.277 31.86 219.864 32.476C220.45 33.092 220.751 33.928 220.766 34.984C220.766 36.7733 220.157 38.1007 218.94 38.966C217.737 39.8313 216.124 40.264 214.1 40.264C211.738 40.264 209.898 39.868 208.578 39.076C207.272 38.284 206.62 36.8833 206.62 34.874H211.218C211.218 35.6367 211.416 36.15 211.812 36.414C212.208 36.6633 212.824 36.788 213.66 36.788C214.276 36.788 214.782 36.722 215.178 36.59C215.588 36.458 215.794 36.1867 215.794 35.776C215.794 35.4093 215.566 35.138 215.112 34.962C214.672 34.7713 213.946 34.5733 212.934 34.368C211.702 34.104 210.682 33.8327 209.876 33.554C209.069 33.2607 208.365 32.784 207.764 32.124C207.162 31.464 206.862 30.5693 206.862 29.44C206.862 27.7827 207.5 26.5653 208.776 25.788C210.066 24.996 211.694 24.6 213.66 24.6Z" fill="white"/>
<line x1="265" y1="55" x2="73" y2="55" stroke="white" stroke-width="2"/>
<line x1="263" y1="11" x2="73" y2="11" stroke="white" stroke-width="2"/>
<line x1="74" y1="10" x2="74" y2="54" stroke="white" stroke-width="2"/>
<line x1="264" y1="10" x2="264" y2="56" stroke="white" stroke-width="2"/>
<path d="M206.593 132.134C206.593 132.134 202.58 131.651 215.436 132.519C221.576 132.934 225.052 140.893 227.295 148.421C231.015 160.903 242.347 207.608 282.485 201.603" stroke="white" stroke-linecap="round"/>
<path d="M283.195 201.5C293.117 198.82 308.657 201 317.663 188.5C323.966 177 322.616 179.5 328.469 160" stroke="white" stroke-linecap="round"/>
<path d="M231.662 9.9168C235.495 7.97214 236.544 3.71178 240.07 1.4754C244.991 -1.64511 249.855 11.551 250.445 13.3269C253.942 23.8546 254.039 34.9796 256.345 45.6949C259.46 60.1751 266.063 74.2976 278.315 85.2745C287.451 93.4596 294.43 104.605 306.941 108.333C317.277 113.349 317.934 114.468 322.173 119.869C329.496 133.454 332.495 137.85 327.613 162" stroke="white" stroke-linecap="round"/>
<path d="M81 153C87.9233 160.553 99.9436 183.178 89.8335 190.361C87.2177 192.22 82.9583 194.532 79.9446 192.139C77.3355 190.067 78.8881 186.132 81.389 184.806C83.5896 183.639 95.8959 182.912 98 184.806C108.5 189 123 212 140.5 219.5" stroke="white" stroke-linecap="round"/>
<path d="M140.5 219.5C184.689 232.622 169.301 129.981 212 132" stroke="white" stroke-linecap="round"/>
<path d="M1 85C6.29616 96.3489 23.8442 99.0067 32.2778 107.139C36.8993 111.596 76.5106 148.511 81 153" stroke="white" stroke-linecap="round"/>
</svg>
