<svg width="1512" height="619" viewBox="0 0 1512 619" fill="none" xmlns="http://www.w3.org/2000/svg">
<path d="M200 309C168.755 284.004 141.336 253.557 107.778 231.556C105.352 229.965 61.8897 211.725 67 230.889C68.2559 235.598 75.2826 239.449 80 239C96.4555 237.433 98.9089 209.381 95.3333 198.333C84.7844 165.738 46.6164 139.342 15.1111 128C10.2331 126.244 4.13562 125.757 0 123" stroke="white" stroke-width="3" stroke-linecap="round"/>
<path d="M1373 69.0414C1320.4 21.0638 1248.1 -8.16303 1177.32 5.27432C1125.06 15.1968 1101.98 54.0016 1099.24 106.924C1096.52 159.499 1117.15 195.559 1148.75 234.347C1170.16 260.636 1265.89 441.894 1281.5 472.5" stroke="white" stroke-width="3" stroke-linecap="round"/>
<path d="M1282 473C1282.78 486.2 1284.23 499.296 1284 512.556C1283.45 544.148 1265.79 563.732 1240.22 580.778C1203.64 605.169 1162.65 615.014 1119.11 617.333C1077.47 619.552 1024.5 599 997 566.5" stroke="white" stroke-width="3" stroke-linecap="round"/>
<path d="M996 565C982.363 558.939 1000.09 507.658 1001.89 499.222C1012.25 450.548 1017.8 392.044 967.556 364.111C921.617 338.57 858.199 354.361 817.222 382.333C796.539 396.453 779.535 413.925 767.111 435.667C763.331 442.282 756.083 478.771 751.5 484.5" stroke="white" stroke-width="3" stroke-linecap="round"/>
<path d="M761 455.111C757.579 499.613 707.114 537.973 669.891 556.698C631.824 575.847 589.585 616.101 542.471 568.957C517.66 531.064 474.509 459.675 427.192 446.585C392.904 437.099 382.374 432.193 348 439.563" stroke="white" stroke-width="3" stroke-linecap="round"/>
<path d="M196 306C204.822 314.143 208.471 321.069 216.056 330.389C225.505 342.001 234.149 353.957 244.444 364.889C255.84 376.989 267.476 389.268 279.972 400.25C297.554 415.7 312.332 421.997 333 433C337.748 435.528 345.5 440.5 353.5 439" stroke="white" stroke-width="3" stroke-linecap="round"/>
<path d="M1208.07 92.8C1211.24 92.8 1213.84 93.448 1215.88 94.744C1217.92 96.016 1218.96 97.912 1219.01 100.432V100.864H1211.56V100.72C1211.56 100 1211.3 99.4 1210.77 98.92C1210.24 98.44 1209.44 98.2 1208.36 98.2C1207.3 98.2 1206.48 98.356 1205.91 98.668C1205.36 98.98 1205.08 99.364 1205.08 99.82C1205.08 100.468 1205.46 100.948 1206.23 101.26C1207 101.572 1208.24 101.896 1209.94 102.232C1211.93 102.64 1213.56 103.072 1214.84 103.528C1216.13 103.96 1217.26 104.68 1218.22 105.688C1219.18 106.696 1219.67 108.064 1219.7 109.792C1219.7 112.72 1218.7 114.892 1216.71 116.308C1214.74 117.724 1212.1 118.432 1208.79 118.432C1204.92 118.432 1201.91 117.784 1199.75 116.488C1197.62 115.192 1196.55 112.9 1196.55 109.612H1204.07C1204.07 110.86 1204.4 111.7 1205.04 112.132C1205.69 112.54 1206.7 112.744 1208.07 112.744C1209.08 112.744 1209.9 112.636 1210.55 112.42C1211.22 112.204 1211.56 111.76 1211.56 111.088C1211.56 110.488 1211.19 110.044 1210.44 109.756C1209.72 109.444 1208.54 109.12 1206.88 108.784C1204.86 108.352 1203.2 107.908 1201.88 107.452C1200.56 106.972 1199.4 106.192 1198.42 105.112C1197.44 104.032 1196.94 102.568 1196.94 100.72C1196.94 98.008 1197.99 96.016 1200.08 94.744C1202.19 93.448 1204.85 92.8 1208.07 92.8ZM1235.96 92.8C1240.23 92.8 1243.53 93.892 1245.86 96.076C1248.18 98.26 1249.35 101.44 1249.35 105.616C1249.35 109.792 1248.18 112.972 1245.86 115.156C1243.53 117.34 1240.23 118.432 1235.96 118.432C1231.68 118.432 1228.38 117.352 1226.06 115.192C1223.75 113.008 1222.6 109.816 1222.6 105.616C1222.6 101.416 1223.75 98.236 1226.06 96.076C1228.38 93.892 1231.68 92.8 1235.96 92.8ZM1235.96 98.74C1234.25 98.74 1232.96 99.256 1232.07 100.288C1231.18 101.32 1230.74 102.712 1230.74 104.464V106.768C1230.74 108.52 1231.18 109.912 1232.07 110.944C1232.96 111.976 1234.25 112.492 1235.96 112.492C1237.66 112.492 1238.96 111.976 1239.84 110.944C1240.76 109.912 1241.21 108.52 1241.21 106.768V104.464C1241.21 102.712 1240.76 101.32 1239.84 100.288C1238.96 99.256 1237.66 98.74 1235.96 98.74ZM1265.44 92.8C1269.11 92.8 1272.02 93.724 1274.15 95.572C1276.29 97.396 1277.36 100.012 1277.36 103.42H1269.76C1269.76 101.98 1269.38 100.84 1268.61 100C1267.86 99.16 1266.8 98.74 1265.4 98.74C1263.8 98.74 1262.61 99.244 1261.84 100.252C1261.1 101.26 1260.72 102.664 1260.72 104.464V106.768C1260.72 108.544 1261.1 109.948 1261.84 110.98C1262.61 111.988 1263.77 112.492 1265.33 112.492C1266.87 112.492 1268.03 112.096 1268.82 111.304C1269.62 110.512 1270.01 109.396 1270.01 107.956H1277.36C1277.36 111.34 1276.31 113.932 1274.22 115.732C1272.16 117.532 1269.23 118.432 1265.44 118.432C1261.22 118.432 1258.01 117.352 1255.83 115.192C1253.67 113.032 1252.59 109.84 1252.59 105.616C1252.59 101.392 1253.67 98.2 1255.83 96.04C1258.01 93.88 1261.22 92.8 1265.44 92.8ZM1282.01 118V93.232H1289.97V118H1282.01ZM1312.24 118L1311.2 114.508H1302.52L1301.48 118H1293.34L1302.38 93.232H1311.63L1320.66 118H1312.24ZM1304.18 108.964H1309.54L1306.95 100.144H1306.8L1304.18 108.964ZM1323.66 93.232H1331.62V111.664H1344.33V118H1323.66V93.232ZM1358.08 92.8C1361.25 92.8 1363.85 93.448 1365.89 94.744C1367.93 96.016 1368.98 97.912 1369.02 100.432V100.864H1361.57V100.72C1361.57 100 1361.31 99.4 1360.78 98.92C1360.25 98.44 1359.45 98.2 1358.37 98.2C1357.31 98.2 1356.5 98.356 1355.92 98.668C1355.37 98.98 1355.09 99.364 1355.09 99.82C1355.09 100.468 1355.48 100.948 1356.24 101.26C1357.01 101.572 1358.25 101.896 1359.95 102.232C1361.94 102.64 1363.58 103.072 1364.85 103.528C1366.14 103.96 1367.27 104.68 1368.23 105.688C1369.19 106.696 1369.68 108.064 1369.71 109.792C1369.71 112.72 1368.71 114.892 1366.72 116.308C1364.75 117.724 1362.11 118.432 1358.8 118.432C1354.94 118.432 1351.92 117.784 1349.76 116.488C1347.63 115.192 1346.56 112.9 1346.56 109.612H1354.08C1354.08 110.86 1354.41 111.7 1355.06 112.132C1355.7 112.54 1356.71 112.744 1358.08 112.744C1359.09 112.744 1359.92 112.636 1360.56 112.42C1361.24 112.204 1361.57 111.76 1361.57 111.088C1361.57 110.488 1361.2 110.044 1360.46 109.756C1359.74 109.444 1358.55 109.12 1356.89 108.784C1354.88 108.352 1353.21 107.908 1351.89 107.452C1350.57 106.972 1349.42 106.192 1348.43 105.112C1347.45 104.032 1346.96 102.568 1346.96 100.72C1346.96 98.008 1348 96.016 1350.09 94.744C1352.2 93.448 1354.86 92.8 1358.08 92.8Z" fill="white"/>
<line x1="1166.5" y1="69" x2="1166.5" y2="142" stroke="white" stroke-width="3"/>
<line x1="1515" y1="143.5" x2="1165" y2="143.5" stroke="white" stroke-width="3"/>
<line x1="1515" y1="69.5" x2="1165" y2="69.5" stroke="white" stroke-width="3"/>
<path d="M1492 68.8256C1489.59 54.6671 1476.82 46.9867 1462.11 49.4581C1428.57 55.0947 1425.96 110.681 1419.78 134.296C1418.67 138.544 1412.77 173.35 1399 165.979C1392.07 162.266 1391.01 153.215 1390 146.506" stroke="white" stroke-width="3" stroke-linecap="round"/>
</svg>
