<svg width="358" height="245" viewBox="0 0 358 245" fill="none" xmlns="http://www.w3.org/2000/svg">
<path d="M146.986 24.4613C148.922 24.4613 150.513 24.8573 151.76 25.6493C153.007 26.4267 153.645 27.5853 153.674 29.1253V29.3893H149.12V29.3013C149.12 28.8613 148.959 28.4947 148.636 28.2013C148.313 27.908 147.822 27.7613 147.162 27.7613C146.517 27.7613 146.018 27.8567 145.666 28.0473C145.329 28.238 145.16 28.4727 145.16 28.7513C145.16 29.1473 145.395 29.4407 145.864 29.6313C146.333 29.822 147.089 30.02 148.13 30.2253C149.347 30.4747 150.345 30.7387 151.122 31.0173C151.914 31.2813 152.603 31.7213 153.19 32.3373C153.777 32.9533 154.077 33.7893 154.092 34.8453C154.092 36.6347 153.483 37.962 152.266 38.8273C151.063 39.6927 149.45 40.1253 147.426 40.1253C145.065 40.1253 143.224 39.7293 141.904 38.9373C140.599 38.1453 139.946 36.7447 139.946 34.7353H144.544C144.544 35.498 144.742 36.0113 145.138 36.2753C145.534 36.5247 146.15 36.6493 146.986 36.6493C147.602 36.6493 148.108 36.5833 148.504 36.4513C148.915 36.3193 149.12 36.048 149.12 35.6373C149.12 35.2707 148.893 34.9993 148.438 34.8233C147.998 34.6327 147.272 34.4347 146.26 34.2293C145.028 33.9653 144.009 33.694 143.202 33.4153C142.395 33.122 141.691 32.6453 141.09 31.9853C140.489 31.3253 140.188 30.4307 140.188 29.3013C140.188 27.644 140.826 26.4267 142.102 25.6493C143.393 24.8573 145.021 24.4613 146.986 24.4613ZM164.029 24.4613C166.64 24.4613 168.656 25.1287 170.079 26.4633C171.502 27.798 172.213 29.7413 172.213 32.2933C172.213 34.8453 171.502 36.7887 170.079 38.1233C168.656 39.458 166.64 40.1253 164.029 40.1253C161.418 40.1253 159.402 39.4653 157.979 38.1453C156.571 36.8107 155.867 34.86 155.867 32.2933C155.867 29.7267 156.571 27.7833 157.979 26.4633C159.402 25.1287 161.418 24.4613 164.029 24.4613ZM164.029 28.0913C162.988 28.0913 162.196 28.4067 161.653 29.0373C161.11 29.668 160.839 30.5187 160.839 31.5893V32.9973C160.839 34.068 161.11 34.9187 161.653 35.5493C162.196 36.18 162.988 36.4953 164.029 36.4953C165.07 36.4953 165.862 36.18 166.405 35.5493C166.962 34.9187 167.241 34.068 167.241 32.9973V31.5893C167.241 30.5187 166.962 29.668 166.405 29.0373C165.862 28.4067 165.07 28.0913 164.029 28.0913ZM182.047 24.4613C184.291 24.4613 186.066 25.026 187.371 26.1553C188.676 27.27 189.329 28.8687 189.329 30.9513H184.687C184.687 30.0713 184.452 29.3747 183.983 28.8613C183.528 28.348 182.876 28.0913 182.025 28.0913C181.042 28.0913 180.316 28.3993 179.847 29.0153C179.392 29.6313 179.165 30.4893 179.165 31.5893V32.9973C179.165 34.0827 179.392 34.9407 179.847 35.5713C180.316 36.1873 181.028 36.4953 181.981 36.4953C182.92 36.4953 183.631 36.2533 184.115 35.7693C184.599 35.2853 184.841 34.6033 184.841 33.7233H189.329C189.329 35.7913 188.691 37.3753 187.415 38.4753C186.154 39.5753 184.364 40.1253 182.047 40.1253C179.466 40.1253 177.508 39.4653 176.173 38.1453C174.853 36.8253 174.193 34.8747 174.193 32.2933C174.193 29.712 174.853 27.7613 176.173 26.4413C177.508 25.1213 179.466 24.4613 182.047 24.4613ZM192.174 39.8613V24.7253H197.036V39.8613H192.174ZM210.647 39.8613L210.009 37.7273H204.707L204.069 39.8613H199.097L204.619 24.7253H210.273L215.795 39.8613H210.647ZM205.719 34.3393H208.997L207.413 28.9493H207.325L205.719 34.3393ZM217.628 24.7253H222.49V35.9893H230.256V39.8613H217.628V24.7253ZM238.66 24.4613C240.596 24.4613 242.187 24.8573 243.434 25.6493C244.68 26.4267 245.318 27.5853 245.348 29.1253V29.3893H240.794V29.3013C240.794 28.8613 240.632 28.4947 240.31 28.2013C239.987 27.908 239.496 27.7613 238.836 27.7613C238.19 27.7613 237.692 27.8567 237.34 28.0473C237.002 28.238 236.834 28.4727 236.834 28.7513C236.834 29.1473 237.068 29.4407 237.538 29.6313C238.007 29.822 238.762 30.02 239.804 30.2253C241.021 30.4747 242.018 30.7387 242.796 31.0173C243.588 31.2813 244.277 31.7213 244.864 32.3373C245.45 32.9533 245.751 33.7893 245.766 34.8453C245.766 36.6347 245.157 37.962 243.94 38.8273C242.737 39.6927 241.124 40.1253 239.1 40.1253C236.738 40.1253 234.898 39.7293 233.578 38.9373C232.272 38.1453 231.62 36.7447 231.62 34.7353H236.218C236.218 35.498 236.416 36.0113 236.812 36.2753C237.208 36.5247 237.824 36.6493 238.66 36.6493C239.276 36.6493 239.782 36.5833 240.178 36.4513C240.588 36.3193 240.794 36.048 240.794 35.6373C240.794 35.2707 240.566 34.9993 240.112 34.8233C239.672 34.6327 238.946 34.4347 237.934 34.2293C236.702 33.9653 235.682 33.694 234.876 33.4153C234.069 33.122 233.365 32.6453 232.764 31.9853C232.162 31.3253 231.862 30.4307 231.862 29.3013C231.862 27.644 232.5 26.4267 233.776 25.6493C235.066 24.8573 236.694 24.4613 238.66 24.4613Z" fill="white"/>
<line x1="290" y1="54.8613" x2="98" y2="54.8613" stroke="white" stroke-width="2"/>
<line x1="288" y1="10.8613" x2="98" y2="10.8613" stroke="white" stroke-width="2"/>
<line x1="99" y1="9.86133" x2="99" y2="53.8613" stroke="white" stroke-width="2"/>
<line x1="289" y1="9.86133" x2="289" y2="55.8613" stroke="white" stroke-width="2"/>
<path d="M90 141.361C90 157.151 77.8632 169.861 63 169.861C48.1368 169.861 36 157.151 36 141.361C36 125.571 48.1368 112.861 63 112.861C77.8632 112.861 90 125.571 90 141.361Z" fill="#161616" stroke="white" stroke-width="2"/>
<path d="M157 215.361C157 231.151 144.863 243.861 130 243.861C115.137 243.861 103 231.151 103 215.361C103 199.571 115.137 186.861 130 186.861C144.863 186.861 157 199.571 157 215.361Z" fill="#161616" stroke="white" stroke-width="2"/>
<path d="M227 144.361C227 160.134 214.656 172.861 199.5 172.861C184.344 172.861 172 160.134 172 144.361C172 128.588 184.344 115.861 199.5 115.861C214.656 115.861 227 128.588 227 144.361Z" fill="#161616" stroke="white" stroke-width="2"/>
<path d="M357 144.361C357 160.134 344.656 172.861 329.5 172.861C314.344 172.861 302 160.134 302 144.361C302 128.588 314.344 115.861 329.5 115.861C344.656 115.861 357 128.588 357 144.361Z" fill="#161616" stroke="white" stroke-width="2"/>
<path d="M295 215.361C295 231.151 282.863 243.861 268 243.861C253.137 243.861 241 231.151 241 215.361C241 199.571 253.137 186.861 268 186.861C282.863 186.861 295 199.571 295 215.361Z" fill="#161616" stroke="white" stroke-width="2"/>
<path d="M85.0001 156.861C91.9234 164.414 97.4436 182.678 87.3335 189.861C84.7177 191.72 80.4583 194.032 77.4446 191.639C74.8355 189.567 76.3881 185.632 78.889 184.306C81.0896 183.139 93.8961 180.412 96.0001 182.306C101.22 187.003 104.463 193.906 110 197.861" stroke="white" stroke-linecap="round"/>
<path d="M156 219.861C184.088 219.861 185 191.139 185 169.861" stroke="white" stroke-linecap="round"/>
<path d="M190 116.861C182.734 110.096 174.776 108.897 176.111 121.25C176.681 126.523 180.837 129.563 185.778 130.306C199.827 132.418 213.907 131.105 228 131.972C237.037 132.528 238.541 140.339 241 147.861C245.077 160.333 243.958 181.58 255 189.861" stroke="white" stroke-linecap="round"/>
<path d="M289 200.861C300.019 198.181 306.135 189.083 312.778 180.306C315.395 176.848 319.29 175.121 320 170.861" stroke="white" stroke-linecap="round"/>
<path d="M261 9.86133C264.14 7.92877 265 3.69491 267.889 1.47244C271.92 -1.62866 275.906 11.4854 276.389 13.2502C279.254 23.7124 279.334 34.7683 281.222 45.4169C283.774 59.807 289.184 73.8416 299.222 84.7502C306.707 92.8844 316.916 97.9342 327.167 101.639C332.844 103.691 338.972 104.883 342.444 110.25C343.979 112.621 344 118.807 344 121.861" stroke="white" stroke-linecap="round"/>
<path d="M1 84.8613C6.29616 96.2102 21.3442 98.5067 29.7778 106.639C34.3993 111.096 40.5106 113.372 45 117.861" stroke="white" stroke-linecap="round"/>
</svg>
