<svg width="1465" height="3024" viewBox="0 0 1465 3024" fill="none" xmlns="http://www.w3.org/2000/svg">
<path d="M485 2C416.333 31.1111 345.614 55.7901 279 89.3333C207.842 125.165 56.7699 198.74 28.1111 297.556C-35.397 516.531 547.701 380.501 607.667 367.111C789.946 326.408 966.897 257.073 1150.33 222.444C1217.81 209.707 1316.87 195.602 1382.78 234.889C1436.86 267.128 1481.5 358.082 1485.89 417.111C1498.69 589.156 1366.03 723.621 1241 817.556C1112.18 914.338 997.162 971.883 841 1013.33C673.769 1057.72 577.165 1052.61 407 1053.56C309.043 1054.1 80.197 1016.39 15.2222 1137.11C-20.7613 1203.96 22.9297 1291.67 75.2222 1331.78C174.773 1408.13 356.357 1443.51 469.889 1462.89C702.46 1502.59 945.945 1490.17 1175.67 1546.22C1268.85 1568.96 1381.53 1601.14 1427.22 1699.56C1474.28 1800.92 1404.75 1852.52 1318.33 1890.44C1253.08 1919.08 1181.95 1933.38 1111.67 1945.11C918.857 1977.31 757.455 1968.75 563.222 1980.67C466.236 1986.62 269.742 1989.12 178.333 2060.67C107.023 2116.48 104.882 2227.61 160.111 2294C198.976 2340.72 255.456 2371.85 311.222 2396C461.287 2460.99 637.889 2469.21 795.889 2492.67C856.007 2501.59 1330.54 2543.84 1180.33 2736.67C1153.24 2771.45 1116.04 2798.48 1077.44 2819.78C973.722 2877.02 788.973 2930.11 677.444 2957.11C513.012 2996.92 348.73 3010.27 181 3022" stroke="white" stroke-width="3" stroke-linecap="round"/>
</svg>
